HIERARCHY
ROOT Hips
{
  OFFSET -102.467 93.6631 130.069
  CHANNELS 6 Xposition Yposition Zposition Zrotation Xrotation Yrotation
  JOINT LeftUpLeg
  {
    OFFSET 8.64259 1.95398 -2.38835
    CHANNELS 3 Zrotation Xrotation Yrotation
    JOINT LeftLeg
    {
      OFFSET 43.7702 0 0
      CHANNELS 3 Zrotation Xrotation Yrotation
      JOINT LeftFoot
      {
        OFFSET 40.6238 0 0
        CHANNELS 3 Zrotation Xrotation Yrotation
        JOINT LeftToeBase
        {
          OFFSET 12.7242 0 0
          CHANNELS 3 Zrotation Xrotation Yrotation
          End Site
          {
            OFFSET 0 0 0
          }
        }
      }
    }
  }
  JOINT RightUpLeg
  {
    OFFSET -8.2249 1.95398 -2.59336
    CHANNELS 3 Zrotation Xrotation Yrotation
    JOINT RightLeg
    {
      OFFSET 43.5653 0 0
      CHANNELS 3 Zrotation Xrotation Yrotation
      JOINT RightFoot
      {
        OFFSET 40.6238 0 0
        CHANNELS 3 Zrotation Xrotation Yrotation
        JOINT RightToeBase
        {
          OFFSET 12.7242 0 0
          CHANNELS 3 Zrotation Xrotation Yrotation
          End Site
          {
            OFFSET 0 0 0
          }
        }
      }
    }
  }
  JOINT Spine
  {
    OFFSET 0.165834 0.87714 6.61349
    CHANNELS 3 Zrotation Xrotation Yrotation
    JOINT Spine1
    {
      OFFSET 7.38963 1.71661e-005 0
      CHANNELS 3 Zrotation Xrotation Yrotation
      JOINT Spine2
      {
        OFFSET 11.9445 1.14441e-005 0
        CHANNELS 3 Zrotation Xrotation Yrotation
        JOINT Spine3
        {
          OFFSET 14.7254 4.19617e-005 0
          CHANNELS 3 Zrotation Xrotation Yrotation
          JOINT Spine4
          {
            OFFSET 10.9679 0 0
            CHANNELS 3 Zrotation Xrotation Yrotation
            JOINT RightShoulder
            {
              OFFSET 2.46616 -1.6653 3.69651
              CHANNELS 3 Zrotation Xrotation Yrotation
              JOINT RightArm
              {
                OFFSET 13.0012 0 0
                CHANNELS 3 Zrotation Xrotation Yrotation
                JOINT RightForeArm
                {
                  OFFSET 28.7848 1.52588e-005 0
                  CHANNELS 3 Zrotation Xrotation Yrotation
                  JOINT RightHand
                  {
                    OFFSET 26.5688 1.52588e-005 0
                    CHANNELS 3 Zrotation Xrotation Yrotation
                    End Site
                    {
                      OFFSET 0 0 0
                    }
                  }
                }
              }
            }
            JOINT LeftShoulder
            {
              OFFSET 2.38034 -1.29275 -3.7523
              CHANNELS 3 Zrotation Xrotation Yrotation
              JOINT LeftArm
              {
                OFFSET 16.3182 6.10351e-005 0
                CHANNELS 3 Zrotation Xrotation Yrotation
                JOINT LeftForeArm
                {
                  OFFSET 27.0901 0 0
                  CHANNELS 3 Zrotation Xrotation Yrotation
                  JOINT LeftHand
                  {
                    OFFSET 24.5451 1.52588e-005 0
                    CHANNELS 3 Zrotation Xrotation Yrotation
                    End Site
                    {
                      OFFSET 0 0 0
                    }
                  }
                }
              }
            }
            JOINT Neck
            {
              OFFSET 5.0226 -0.0266342 0
              CHANNELS 3 Zrotation Xrotation Yrotation
              JOINT Head
              {
                OFFSET 6.69363 2.86102e-005 0
                CHANNELS 3 Zrotation Xrotation Yrotation
                End Site
                {
                  OFFSET 0 0 0
                }
              }
            }
          }
        }
      }
    }
  }
}
MOTION
Frames:	12
Frame Time:	0.0416667
35.4719 90.7347 -85.3282 -4.21809 75.2372 -158.014 -179.556 -5.1982 91.6491 -29.9026 28.0898 6.91791 41.5472 -8.21737 3.59998 39.4929 -1.67838 -1.99496 177.046 56.6177 90.3786 -58.121 -12.0549 0.226626 57.7523 8.25756 16.3431 58.821 -5.09364 5.4491 -1.16439 9.53916 -91.4928 7.75571 -2.97501 -2.79047 -3.91449 -3.09491 -2.65687 -26.4405 -1.99937 -3.55498 -6.42784 -1.99936 -3.55497 100.477 -50.6264 -84.7863 37.5766 -14.883 31.8015 -4.1996 -5.81433 -27.5954 -4.13985 -0.0800793 -3.8597 -86.6042 -45.4297 82.8304 7.47219 -11.1129 -31.1398 5.50164 -5.37783 -80.7115 15.4596 -0.482367 -7.24735 21.5319 3.0793 -17.3074 -16.4931 5.65713 27.5896 
37.2768 91.0896 -106.322 -0.229501 79.0186 -164.755 178.097 1.60369 85.9282 -68.0032 10.0988 4.81238 45.3924 -4.28916 8.35037 21.1878 0.875918 -0.281407 171.01 48.0015 91.7361 -37.6316 -12.0512 5.92879 51.702 12.054 20.7639 77.3743 -8.35404 7.09797 -0.947392 9.83621 -91.5308 7.15976 -2.55078 -2.90345 -4.51168 -2.67604 -2.78844 -27.0299 -1.56087 -3.5352 -7.01721 -1.56088 -3.53521 99.9567 -53.5004 -85.4719 30.6189 -11.8062 22.2087 0.938047 4.50166 -27.0008 -5.35417 -0.0544802 -4.4377 -85.9431 -49.7054 84.5341 3.5273 -1.40743 -20.5991 7.55544 -4.56165 -74.5277 14.6642 -0.380083 -6.30287 26.0518 3.2784 -14.3958 -20.152 4.96677 24.604 
39.2784 88.9139 -126.592 10.1944 84.7775 -171.734 179.876 22.5318 90.244 -111.961 9.94452 2.71859 44.7888 -1.77583 13.5614 28.1483 -0.059607 -2.43623 167.895 35.1486 97.1246 -50.2038 -11.4717 7.51695 63.0077 6.55276 15.3508 42.1092 0.00103442 10.7384 -0.298505 10.2967 -92.086 6.23421 -1.47778 -4.0516 -5.44202 -1.65451 -3.9828 -27.9268 -0.193085 -4.30796 -7.9141 -0.193082 -4.30796 101.462 -56.4932 -83.1849 18.9197 -10.0846 0.592764 4.29863 10.9373 -28.9469 -4.96484 0.0103616 -6.07672 -87.7955 -55.6408 82.7253 -2.67888 14.4712 -11.9805 8.23804 8.9981 -39.7224 6.92324 -0.500793 -9.25376 29.3356 3.01182 -14.1227 -22.0056 4.4513 25.8788 
40.6837 87.8652 -147.578 57.7824 82.2576 142.693 175.465 52.51 96.8952 -120.308 10.1703 2.80945 48.6876 1.17285 14.1985 36.0905 -0.93954 -0.707861 174.878 22.4918 98.6393 -52.772 -17.0765 3.80731 73.2143 -1.66519 7.11293 58.6884 -2.04087 12.1535 0.369109 9.85425 -91.953 7.13662 -0.101616 -3.84539 -4.54019 -0.270605 -3.83721 -27.0306 1.05789 -3.69861 -7.01792 1.0579 -3.69861 100.491 -54.6381 -84.6325 15.2988 -8.02359 -17.8708 -0.0323365 5.25633 -44.0797 -4.34086 -0.0390174 -4.78135 -87.8109 -57.3385 82.9713 -15.6104 17.9442 6.15586 0.940909 29.0329 -18.0734 5.36781 -0.282272 -7.24062 29.4797 2.28795 -19.0547 -22.201 4.80788 31.4112 
40.777 90.6465 -170.863 49.8247 79.0567 140.933 179.869 64.258 90.2639 -87.5585 9.06599 2.31967 52.0546 0.372864 11.8325 40.6995 -1.2464 0.892247 175.022 -0.482728 89.4898 -29.7129 -14.1362 -1.07071 63.5038 8.70107 21.461 57.4671 -0.233807 16.5982 0.81821 8.79012 -90.5653 9.32883 1.37748 -1.2446 -2.34174 1.32135 -1.30402 -24.8834 1.68797 -0.773009 -4.87073 1.68798 -0.773015 102.314 -50.7112 -81.9373 15.0995 -12.319 -18.3728 -1.66496 7.39461 -72.3192 -4.08501 0.0259872 -6.8164 -88.1013 -53.4802 81.9205 -24.846 16.6004 22.0323 -2.08789 34.7003 -13.6691 3.67942 -0.262261 -7.61564 24.4941 0.547033 -11.2641 -21.5025 1.74279 18.103 
39.5835 93.909 -195.475 28.1993 82.5406 160.05 177.006 52.3261 90.7596 -40.2938 9.34927 1.50537 50.1129 -2.35884 9.24546 36.9886 -1.1345 -1.29054 172.89 -15.1606 84.0573 -26.912 -17.6849 -2.26848 44.7291 12.3392 16.9132 28.5311 0.140986 0.510957 1.0019 8.46631 -90.2862 9.94766 1.86683 -0.720443 -1.72218 1.8333 -0.80193 -24.268 1.99701 -0.125866 -4.25534 1.99701 -0.125872 104.448 -49.2596 -78.5719 15.4269 -19.7426 -12.6165 -7.91466 8.88853 -84.0682 -4.19221 0.115715 -9.68009 -89.0913 -50.752 79.9811 -25.7794 18.5941 21.5635 -3.9798 32.8252 -12.9061 4.01877 -0.313525 -8.36254 17.8091 -1.28485 -6.78664 -19.6389 -0.720099 10.7545 
39.6206 93.116 -217.962 56.5739 88.962 130.813 -174.167 38.183 87.4809 -26.7203 12.2918 -2.94149 46.9185 -5.50278 7.57855 46.0634 -1.21441 2.89823 177.372 -7.30412 86.1902 -81.0771 -21.7876 -4.68569 38.1044 14.5104 13.2848 19.7616 2.68017 7.28258 0.685567 8.93722 -90.096 9.00004 1.32451 -0.281217 -2.67042 1.31087 -0.339249 -25.2098 1.34778 0.129903 -5.19714 1.34778 0.129904 102.888 -51.2989 -81.0603 17.7946 -26.3034 -5.6131 -11.9134 8.24843 -74.8457 -4.17284 0.0206322 -6.48861 -87.4811 -53.9963 82.9144 -17.361 19.8825 7.12126 -7.45477 29.768 -8.11569 6.84287 -0.295336 -6.88032 17.1224 -0.331569 -6.57129 -20.7765 0.379614 8.22626 
38.917 89.1525 -239.646 -116.35 81.4266 -62.3759 -171.246 30.062 77.559 -50.8873 16.4201 -4.18067 61.3549 11.4436 26.0132 37.5807 -1.16766 -1.41444 -179.727 9.74285 80.735 -124.45 -25.5153 -2.67339 34.0253 16.0143 10.6128 18.3923 2.57153 0.41865 -0.328484 9.44969 -89.427 7.98094 -0.404996 1.15661 -3.69024 -0.353693 1.1733 -26.2244 -0.733878 0.981435 -6.21177 -0.733876 0.98144 103.285 -54.752 -80.523 22.9425 -22.5376 1.74285 -9.70471 1.74196 -54.017 -8.50169 -0.0724673 -4.77928 -86.6836 -54.3553 84.114 -5.18677 18.1267 -16.5101 -5.99041 23.3303 -10.0537 9.88327 -0.379387 -6.78005 25.5564 0.227493 -6.41453 -27.0867 1.99033 2.95457 
37.6231 87.9647 -262.063 -109.457 74.0352 -71.1526 -175.26 11.8633 74.7267 -56.1592 22.8151 -1.16932 64.6047 19.3413 35.0169 57.3034 -0.882769 7.55139 -176.813 40.8345 82.2273 -123.364 -25.7456 -3.18415 39.8526 12.0367 4.62731 31.6891 -1.14183 -2.262 -1.1877 9.35939 -89.3845 8.16494 -2.10018 1.3366 -3.50526 -2.03934 1.42774 -26.0513 -2.40476 0.643391 -6.03861 -2.40476 0.64338 103.421 -54.6723 -80.3212 26.6527 -15.1533 6.71719 -10.6971 -14.6801 -30.3328 -5.78176 -0.153745 -2.25761 -87.5111 -54.5488 82.9562 -0.0997781 10.1828 -33.1348 4.22322 15.5485 -24.6806 5.8399 -0.776068 -13.3585 24.2443 -0.320486 -3.66849 -27.3945 1.01742 -0.123219 
34.532 92.623 -286.359 -106.64 68.15 -68.6747 -179.409 -4.55962 86.181 -49.9488 21.3751 6.10762 60.1351 4.76067 14.1298 63.56 -1.48297 7.0857 175.323 43.399 85.0008 -79.0743 -15.0864 -1.94915 49.2646 8.63359 8.90878 37.7349 -2.7463 -2.38384 -1.51245 8.85508 -90.2121 9.16293 -3.11138 -0.198239 -2.5043 -3.1171 -0.0609748 -25.0663 -2.90786 -1.12496 -5.0537 -2.90785 -1.12495 104.925 -53.2044 -78.0304 28.7672 -15.6035 17.0392 -8.81224 -26.6739 -20.0022 -2.76878 -0.0911887 -1.69748 -86.1181 -52.0714 84.6121 4.38293 11.9506 -35.852 8.24894 4.32886 -45.6976 -5.66473 0.674676 -30.5313 11.3272 -3.37822 -3.26026 -14.4344 -2.6688 1.52208 
32.3228 90.486 -309.217 -106.01 68.4011 -69.5405 -179.947 -17.705 92.4416 -40.0203 12.4146 4.4608 40.2224 -8.91218 -8.45998 120.079 -12.3574 2.59564 178.248 35.9003 82.4483 -26.5358 5.4349 -0.673313 42.5626 13.9465 25.6833 20.5023 2.39991 23.117 -1.44523 8.19099 -90.1857 10.4947 -2.96398 -0.115082 -1.17285 -2.96616 0.0155864 -23.7329 -2.79223 -1.00125 -3.72023 -2.79224 -1.00125 105.202 -50.5588 -77.456 30.1912 -11.0079 26.6263 -5.64435 -26.4085 -14.2043 -0.365466 -0.0256772 -2.12002 -81.0776 -47.171 91.7719 12.1656 7.90274 -27.9952 40.7417 4.41647 -79.7857 -24.025 15.3662 -50.8638 18.6331 -4.106 0.651677 -24.243 -2.75282 -8.17335 
31.926 76.4416 -330.495 -89.2986 63.6847 -91.0079 171.943 -23.2511 91.3706 -44.8419 13.3363 2.60564 41.9607 -7.81593 -15.4356 138.905 -36.7779 -10.7186 -175.344 44.2697 70.5737 5.76527 57.8854 -11.2299 18.1074 13.9835 48.9737 -23.6383 -2.6518 48.9402 -1.63903 6.85923 -89.9463 13.1672 -3.22732 0.513521 1.5001 -3.20158 0.655199 -21.0668 -3.23228 -0.481198 -1.05413 -3.23229 -0.481201 104.461 -41.8744 -78.133 32.7126 -5.06967 34.5737 -6.55243 -26.5249 -13.1225 3.24097 0.0637386 -2.69442 -81.4414 -49.2787 91.4214 26.0827 -28.5993 -10.8524 109.474 -31.1237 -115.118 -6.23898 1.2759 -89.9451 31.1047 8.55487 27.3664 -36.1452 14.1943 -54.0965 
